<svg version="1" xmlns="http://www.w3.org/2000/svg" width="2949.333" height="2949.333" viewBox="0 0 2212.000000 2212.000000"><path d="M1097.9 246.3c-9.3 3.5-14.9 9.1-17.8 17.9-1 2.9-1.3 41.9-1.3 172.4v168.6l-98.7-98.8c-71.9-71.8-100-99.3-103.4-101-8.8-4.5-19.4-3.5-27.7 2.5-4.6 3.3-5.7 4.6-8.7 11-2.2 4.5-2.5 6.3-2.1 12 .3 3.8 1.4 8.3 2.6 10.6 1.2 2.5 45.5 47.5 120 122.1l118.1 118.1-.1 86.8v86.8l-79.2-79.2c-43.5-43.5-79.5-79.1-80-79.1-.4 0-7.7 6.9-16.2 15.4s-16.2 15.7-17.1 16c-1 .2-10.6 2.8-21.3 5.7-10.7 2.9-19.7 5.4-19.9 5.6-.4.3-.1 1.6 5.4 21.8 6.8 25.1 17.7 65.8 18 67.5.2.9 1.2 4.8 2.3 8.6 2.3 8.1 10.2 37.2 10.7 39.4.2.8 3.9 15 8.3 31.5 4.5 16.5 9.2 34.2 10.5 39.3l2.5 9.2-3.1-1.9c-2.8-1.6-41.5-24-51.7-29.9-3.2-1.8-11.5-6.6-20-11.5-1.9-1.1-4.8-2.8-6.5-3.8-1.6-1.1-3.6-2.2-4.4-2.6-.8-.3-9-5.1-18.3-10.5s-17.4-9.8-17.9-9.8-.9-.4-.9-.8-1.2-1.3-2.7-2c-1.6-.6-4.1-2-5.8-3-3-1.9-6-3.7-14.5-8.5-3.9-2.1-4.7-3.2-5.8-7.3-.7-2.7-2-7.2-2.8-9.9-.7-2.8-4.6-16.9-8.5-31.5-3.8-14.6-8.2-30.8-9.6-36-1.4-5.2-3.8-14.2-5.3-20-1.5-5.8-6.5-24.2-11-41s-8.3-31.2-8.5-32c-.2-.8-2.1-8-4.3-16-3.8-13.8-5.2-19.3-5.7-21.5-.2-.6-.8-3-1.6-5.5-.7-2.5-1.3-5-1.5-5.5-.1-.6-2.1-8-4.4-16.5-2.3-8.5-4.9-18-5.6-21-.8-3-1.7-6.3-1.9-7.3-.3-.9-.7-2.5-.9-3.5-.9-3.5-8.7-32-11.2-41.2-3.6-12.8-7.1-18.1-14.7-21.8-6.7-3.3-11.5-4-17.8-2.7-12.9 2.5-21.7 13.1-21.9 25.8 0 4.8.9 8.6 8.9 38.2 2.1 7.7 5.1 18.7 6.6 24.5 1.5 5.8 4.2 15.9 6 22.5 1.8 6.6 5.6 20.8 8.4 31.5 2.9 10.7 6 22.4 7 26 1.7 5.7 11.5 42.6 12.7 47.2.6 2.7.6 2.6 11.7 43.8 5.7 21.2 10.3 38.7 10.1 38.9-.1.1-10.8-5.8-23.6-13.2-66.5-38.3-101.6-58.6-104.3-60.1-1.6-.9-4.6-2.6-6.5-3.7-3.8-2.3-46.1-26.8-52.5-30.4-2.2-1.3-11.2-6.5-20-11.5-8.8-5.1-18-10.4-20.5-11.8-2.5-1.4-7.4-4.2-10.9-6.4-3.4-2.1-6.4-3.8-6.5-3.8-.2 0-10.4-5.9-22.7-13-12.3-7.2-24.2-13.5-26.4-14.1-5.3-1.5-14-.7-19 1.6-4.9 2.3-11 8.5-13.2 13.4-.9 2.1-1.6 6.6-1.7 10.6-.1 11.4 4.8 19.5 15.4 25.1 2.5 1.3 5.2 2.9 6 3.4 1.6 1 15.2 9 21 12.2 1.9 1.1 9.1 5.3 16 9.3 6.9 3.9 14.5 8.3 17 9.7 5.3 3 45.8 26.4 48 27.7 1.7 1.1 17.6 10.3 23.5 13.6 6.2 3.5 53.3 30.7 70.5 40.7 8.5 5 17.5 10.2 20 11.6 2.5 1.3 9.7 5.5 16 9.2 19.5 11.4 38.3 22.2 43.2 24.9 2.6 1.4 4.6 2.6 4.5 2.7-.3.2-24.4 6.7-68.2 18.3-18.7 5-35.3 9.5-37 10.1-1.6.5-5.9 1.6-9.5 2.5-8.6 2.1-6.3 1.5-63 16.9-7.4 2-14.2 3.9-15 4-.8.2-9.1 2.4-18.5 4.9-63.4 16.9-60.8 16.1-66.8 22.1-15.9 15.8-5.6 43.7 16.7 45.3 5.1.4 8.9-.2 21.2-3.5 8.2-2.3 20.3-5.5 26.9-7.3 6.6-1.7 15.2-4 19-5.1 3.9-1.1 7.7-2.1 8.5-2.3 1.5-.3 27.3-7.3 30-8 .8-.3 4-1.1 7-1.9 12.1-3.2 36.4-9.6 53-14.1 9.6-2.6 22.2-6 28-7.5 5.8-1.6 20.9-5.6 33.5-9 12.7-3.4 23.7-6.4 24.5-6.6.8-.2 8.3-2.2 16.5-4.4 8.3-2.2 25-6.8 37.3-10.1l22.3-6 21.2 12.2c11.7 6.7 26.4 15.2 32.7 18.9 13.1 7.7 56.5 32.7 59.5 34.4 15.2 8.4 36.3 21.2 35.7 21.7-.6.6-6.6 2.3-12 3.5-1.2.2-6.4 1.6-11.5 3-11.6 3.2-18.8 5.1-46.7 12.5-12.4 3.2-24.7 6.6-27.5 7.3-2.7.8-13.8 3.8-24.5 6.6s-23.3 6.2-28 7.5c-7 2-19.4 5.3-26 7-21.9 5.6-37.3 9.9-39 11-.5.3-.5 1.8.1 3.3.6 1.5 1.3 3.6 1.5 4.7.2 1.1 2.4 9.4 4.8 18.5l4.5 16.5-5.4 20.3c-3 11.2-5.5 21-5.5 21.7 0 .8 1.8 1.9 4.3 2.5 2.3.6 6.5 1.8 9.3 2.6 2.8.8 6 1.6 7 1.9 1.1.2 5.1 1.3 8.9 2.4 6.3 1.8 24.7 6.7 28.5 7.6 1.7.4 4.7 1.2 35.5 9.5 12.7 3.4 23.7 6.3 24.6 6.5.9.2 4.7 1.2 8.5 2.3 3.8 1.1 11.4 3.1 16.9 4.6 5.5 1.5 12.5 3.3 15.5 4.1 3 .9 12.3 3.3 20.5 5.6 25.8 6.9 34 9.1 35.4 9.5 1.7.5 1.7.5-43.7 26.8-17.7 10.2-32.7 18.6-33.2 18.6-.6 0-1 .4-1 1 0 .5-.4 1-.9 1-.4 0-16.4 9-35.3 20l-34.6 19.9-12.3-3.3c-6.8-1.9-24.5-6.6-39.4-10.6-14.8-3.9-29.2-7.8-32-8.6-4.4-1.3-31.3-8.4-119.5-31.8-13.5-3.6-25.8-6.9-27.5-7.4-1.6-.5-6.6-1.9-11-3.1-4.4-1.2-18-4.8-30.2-8.1-53.6-14.4-53.8-14.4-62.5-11.4-6.3 2.1-12.2 7.4-15.2 13.7-3.1 6.5-3.2 17-.1 23.1 2.3 4.7 7.3 9.9 11.8 12.2 2.5 1.4 20.6 6.6 33.7 9.9.8.2 4 1 7 1.8 3 .9 12.5 3.4 21 5.7 8.5 2.3 20.2 5.4 26 7 24 6.5 30.6 8.2 31.5 8.5 3 .7 7.7 1.9 13.5 3.5 3.6 1 16 4.3 27.5 7.4 11.6 3.1 27.8 7.4 36 9.7 8.3 2.3 16.6 4.5 18.5 4.9 1.9.5 15.3 4 29.7 7.9 14.4 3.9 26.6 7.1 27 7.1.4 0-4.6 3.1-11.2 6.8-6.6 3.8-15.2 8.7-19.2 11-3.9 2.3-8.7 5-10.5 6.1-1.8 1-13 7.5-24.8 14.3-11.8 6.8-32.3 18.7-45.5 26.3-13.2 7.6-26.9 15.5-30.4 17.7-3.4 2.1-6.5 3.8-6.7 3.8-.1 0-5.8 3.2-12.6 7.1-6.7 4-13.6 8-15.3 8.9-7.7 4.4-86.6 50.1-91.3 52.9-2.9 1.7-5.5 3.1-5.8 3.1-.3 0-3 1.6-6 3.5s-5.7 3.5-6 3.5c-.9 0-8.7 6.2-10.6 8.5-5.6 6.6-7.2 19.9-3.3 28 4.9 10.2 15.6 16.2 27.2 15.2 6-.4 7.8-1.2 25.1-11.2 10.3-6 20.1-11.6 21.7-12.5 1.7-1 8.4-4.9 15-8.7 6.6-3.9 14-8.1 16.5-9.5 6.4-3.6 60.2-34.6 62-35.8 1.3-.8 14.3-8.3 22.5-13 12.1-7 43.6-25.2 51-29.5 9.7-5.7 14.8-8.6 20.7-11.9 2.1-1.2 9.3-5.3 16-9.2 45.1-26.2 48.9-28.3 48.4-26.6-.8 2.6-6.7 24.5-7.1 26.2-.2.8-4.9 18.6-10.5 39.5-5.7 20.9-11.6 42.9-13.2 49-3.7 13.7-8.8 32.5-9.3 34.5-.2.8-1.3 4.9-2.4 9-1.8 7.2-16.2 60.9-20.2 75.5-8 29.5-9.1 34.9-8.6 40.6 1.2 13.4 12.5 23.8 25.8 23.9 10.2 0 18.8-4.6 23.5-12.5 3.1-5.4 3.1-5.4 22.5-78.5 2.7-10.2 5.4-20.3 6.1-22.5.6-2.2 1.3-4.7 1.5-5.5.1-.8 2.8-10.7 5.8-22 3.1-11.3 5.8-21.2 5.9-22 .7-3 35.8-133.7 38.1-142 1.3-4.7 3.8-13.9 5.5-20.5 1.7-6.6 3.4-12.3 3.8-12.6.7-.7 14.9-9 23.2-13.6 2.5-1.4 6.5-3.8 9-5.3s15.1-8.8 28-16.2c29.2-16.8 37.8-21.8 65.8-37.9 12.2-7.1 22.6-12.9 23-12.9.5 0-.9 6.4-3 14.2-10.1 37.3-15 55.4-15.3 56.8-.2.8-3.7 14.1-7.8 29.5s-7.7 28.9-8 30c-.6 2.2-3.5 12.7-6.7 24.5-1.1 4.1-2.3 8.4-2.5 9.4-.3 1.1-2.5 9.6-5.1 19-2.5 9.4-4.7 17.8-4.9 18.7-.2.8-1 4-1.9 6.9-.9 3-1.6 5.9-1.6 6.5 0 .6 3.7 2.1 8.3 3.2 4.5 1.2 10.9 2.9 14.2 3.8 3.3.9 9.2 2.5 13.1 3.5l7.1 1.8 16 16 16 16 60.7-60.7 79.5-79.5 18.9-18.9v173.5l-118 118.1c-131.4 131.4-123.5 122.7-122.6 135.6.3 3.8 1.4 8.3 2.6 10.6 6.6 12.9 22.4 18.6 35.4 12.6 3.1-1.4 30.2-27.8 103.4-101.1l99.2-99.1v168.8c.1 185.8-.3 173 6.2 181.2 1.7 2.1 5.5 5.2 8.3 6.7 4.5 2.5 6.2 2.9 12.7 2.8 11.2 0 18.9-4.8 24.4-14.9l2.1-4 .3-170.2.2-170.2 98.8 98.8c75.8 75.8 99.8 99.2 103.4 101 5.9 2.8 13.6 3.3 20.2 1.2 7.5-2.3 14.9-10 17.1-17.6 2.1-7.1 1.3-15.3-2.1-21-1.3-2.2-55.2-56.8-119.9-121.5L1133 1529.5v-174l79.8 79.5 79.7 79.5 16-16 16-16 21-5.4c11.6-3 21.1-5.5 21.3-5.7.2-.1-1-5.3-2.7-11.6-3.5-12.9-5.5-20.2-11.1-41.3-2.2-8.3-4.5-16.6-5-18.5-.5-1.9-2.1-7.8-3.5-13s-3.2-12-4-15c-.8-3-2.6-9.6-3.9-14.5-1.3-5-3.7-14.2-5.4-20.5-1.7-6.3-5.4-20.1-8.2-30.5-2.8-10.5-6.2-23.1-7.5-28-1.4-5-2.7-9.9-2.9-11-.3-1.1-1.2-4.3-2-7-.9-2.8-1.6-5.3-1.6-5.7 0-.4 2.8.9 6.3 2.9 3.4 1.9 7.8 4.4 9.7 5.5 1.9 1.1 15 8.7 29 16.8 14 8.1 27.1 15.7 29 16.7 1.9 1.1 8 4.6 13.5 7.8 24 14 55.3 31.9 58.7 33.8 2.9 1.6 4.1 3.1 5.2 6.6 1.2 3.8 10.9 39.9 12.2 45.1.2.8 1.9 7.3 3.9 14.5 1.9 7.1 5 18.8 6.9 26 1.9 7.1 7.4 27.4 12.1 45 9.6 35.6 12.3 45.8 13 49.5.3 1.4 1 3.6 1.5 5s2.3 7.7 3.9 14 7.1 26.8 12.1 45.5c5.1 18.7 10.5 38.9 12.1 45 7.8 30.3 9.2 33.6 16.2 38.9 5.6 4.3 9.8 5.5 17.8 5.3 10.6-.3 17.9-4.9 22.6-14 4.2-8.4 4.2-14.2-.2-29.2-.8-2.8-4-14.2-6.9-25.5-5.5-20.4-7.6-28.4-12.2-45.5-1.4-5-2.6-9.7-2.8-10.5-.2-.8-2-7.6-4-15-2.1-7.4-3.9-14.2-4.1-15.1-.2-.9-2.4-9.5-5-19-2.6-9.6-4.9-18.1-5.1-18.9-.2-.8-1.7-6.5-3.4-12.5-1.6-6.1-4.8-18-7-26.5-2.3-8.5-4.8-17.8-5.6-20.6-.8-2.8-1.7-6-1.9-7-.2-1.1-.9-3.5-1.4-5.4-.5-1.9-2.1-8-3.6-13.5-1.4-5.5-3.3-12.2-4.1-14.9-.7-2.7-1.2-5.1-1-5.3.4-.5 3.9 1.4 31.1 17.2 30.7 17.8 75.1 43.3 80.4 46.2 2.5 1.4 5.8 3.4 7.3 4.4 1.4 1.1 2.9 1.9 3.3 1.9.4 0 1.9.8 3.3 1.9 1.5 1 5.4 3.3 8.7 5.1 3.3 1.8 13.9 7.9 23.5 13.5s19.5 11.3 22 12.7c5.2 2.9 33.8 19.6 39 22.7 1.9 1.1 4.2 2.4 5 2.8.8.4 5.8 3.3 11.2 6.4 5.3 3.1 12 7 15 8.7 2.9 1.6 10.4 5.9 16.6 9.6 12.5 7.3 19.2 11.1 23.7 13.5 1.8 1 5.9 1.7 10.4 1.8 8.5.2 14.7-2.3 20.3-8 9.7-10 9.5-27.5-.4-37.4-2.5-2.5-42.3-26.5-50.8-30.6-.8-.4-2.4-1.3-3.5-2-1.7-1-10.4-6.1-24.5-14.2-19.6-11.4-54.9-31.8-56-32.5-.8-.5-22-12.7-47-27.1-25-14.4-47.2-27.3-49.2-28.6-2.1-1.2-4-2.3-4.2-2.3-.2 0-11.2-6.2-24.3-13.8-13.1-7.6-26.2-15.2-29.1-16.9l-5.3-3 10.3-2.7c5.7-1.5 12.3-3.3 14.8-4.1 2.5-.7 10.1-2.8 17-4.5 6.9-1.8 15.4-4.1 19-5.1 7.9-2.2 77.9-21 80-21.4.8-.2 14.8-3.9 31-8.3s44.1-11.9 62-16.6c17.9-4.7 34.8-9.8 37.5-11.2 17.8-9.1 19.1-34.1 2.2-45.8-4.8-3.3-6.4-3.9-12.4-4.3-5.9-.4-9.1.2-23.8 4.2-9.3 2.6-17.7 4.8-18.5 5-.8.2-17.5 4.6-37 9.8-19.5 5.3-44.9 12.1-56.5 15.2-11.5 3.1-31.6 8.5-44.5 11.9-12.9 3.5-32.9 8.9-44.5 12-11.5 3.1-33.6 9-49 13.1-15.4 4.2-29.1 7.8-30.4 8.1-1.3.3-7.2 1.8-12.9 3.4l-10.5 3-34.1-19.7c-18.8-10.8-41.1-23.7-49.6-28.6-8.5-5-17.6-10.2-20.1-11.6-22-12.3-45.8-26.6-45.1-27.1.4-.4 3.4-1.4 6.7-2.3 13.4-3.5 78.9-21.1 91-24.4 7.2-1.9 18.6-5 25.5-6.8 6.9-1.8 17-4.5 22.5-6s15.6-4.2 22.5-6c18.9-5 43.3-11.5 45.4-12.2 2.1-.6 2.3.2-3.5-20.8-2.2-8.3-4.5-16.9-5-19.2-1.1-4.3-1.1-4.4 7.7-36.6 1.4-5.4 2.4-10 2.1-10.3-.5-.5-83.4-22.9-110.7-30-7.4-1.9-14.6-3.9-16-4.4-1.4-.4-14-3.8-28-7.5s-28.4-7.5-32-8.5c-3.6-1.1-11.2-3.1-17-4.6-5.8-1.5-10.9-3-11.3-3.4-.5-.4 1.8-2.2 5-4 3.2-1.8 7.2-4.1 8.8-5 1.7-.9 17-9.8 34-19.7 47.7-27.6 78.7-45.5 81.8-47.2 1.6-.9 3.6-2.1 4.5-2.6.9-.6 4.7-2.7 8.4-4.8l6.8-3.9 4.7 1.5c2.7.8 9.5 2.7 15.3 4.2 5.8 1.5 13.4 3.5 17 4.5 3.6 1 18.7 5 33.5 9 14.9 4 42.5 11.4 61.5 16.5s47.6 12.7 63.5 17c16 4.2 30.4 8.1 32 8.6 1.7.5 14.9 4.1 29.5 8 39.2 10.4 51.9 13.8 58 15.4 14.7 4 26.9-.6 33.5-12.7 3.9-7 4.2-16.9.7-23.9-2.8-5.7-8.1-11.1-13-13.2-3-1.4-40.6-11.7-82.7-22.7-4.4-1.1-11.1-3-15-4-3.8-1.1-15.5-4.3-26-7.1-10.4-2.8-21.5-5.7-24.5-6.5-3-.8-9.8-2.6-15-4-5.2-1.4-12.8-3.4-17-4.5-27.8-7.5-70.7-19.1-72-19.4-3.5-.8-17.5-4.7-17.7-4.8-.1-.2 9.6-5.9 29.1-17.1 2.8-1.6 29.4-17 59.1-34.1 29.7-17.2 55.9-32.3 58.2-33.6 2.3-1.3 9.2-5.3 15.4-8.9 6.2-3.6 13.1-7.6 15.3-8.9 4.9-2.8 54.9-31.6 59.1-34.1 1.7-.9 10.7-6.1 20-11.5 38.6-22.2 38-21.8 42.2-30 8.9-17.3-4.7-38.9-24.3-38.6-7.1 0-9.1 1-40.4 19.1-14.6 8.4-28.1 16.1-30 17.2-1.9 1.1-12.5 7.2-23.5 13.6-11 6.3-35.1 20.2-53.5 30.8-18.4 10.6-34 19.8-34.7 20.3-.7.6-1.5 1.1-1.8 1.1-.3 0-4.9 2.5-10.3 5.6-5.3 3.1-18.5 10.7-29.2 16.9-10.7 6.2-21.1 12.2-23 13.3-1.9 1.2-6.2 3.6-9.5 5.5-9.1 5.2-12.2 7-22 12.7-4.9 2.9-10.6 6.1-12.5 7.2-1.9 1.1-5 2.9-6.8 4-1.8 1.1-3.5 1.8-3.8 1.6-.2-.3.7-4.5 2.1-9.4 1.4-4.9 4.5-16.6 7-25.9 5.5-21 7.4-27.9 12.6-47 2.2-8.3 6.7-24.9 9.9-37 3.2-12.1 8.3-31.2 11.4-42.5 6.3-23.7 13.5-50.5 20.7-77.5 2.8-10.5 5.6-20.9 6.4-23.2 1.8-5.6 1.3-15.8-.9-20.6-1.1-2.1-3.8-5.7-6.1-8.1-12.3-12.7-34.6-9-42.8 7.1-.8 1.5-5.6 18.1-10.5 36.8-5 18.7-13.9 51.8-19.8 73.5-5.8 21.7-10.8 40.4-11.1 41.5-.3 1.1-4.2 15.9-8.8 33-4.5 17-8.5 31.9-8.8 33-1.4 5.4-11.8 44.4-12.7 47.5-2.5 9-5.2 18.8-9 33.5-7.2 27.6-3.8 23.1-28.3 37.1-11.7 6.7-31.1 17.9-43.2 24.9-12.1 7-23.6 13.6-25.5 14.7-8.4 4.9-50 28.8-54.7 31.6-2.9 1.8-5.3 3-5.3 2.9 0-.1.9-3.6 2.1-7.7 1.1-4.1 2.1-8.2 2.3-9 .2-.8 4.8-17.7 10.1-37.5s12.1-45.2 15.1-56.5c3.1-11.3 7.4-27.3 9.6-35.5 2.2-8.3 5.5-20.6 7.3-27.5 1.8-6.9 5.1-19.4 7.4-27.9 2.3-8.4 4.1-15.4 3.9-15.6-.3-.1-12.3-3.4-15.3-4.1-.5-.2-1.9-.5-3-.8-1.1-.3-6.5-1.7-11.9-3.1-5.5-1.5-10.9-3.1-12-3.7-1.2-.6-8.8-7.8-16.9-16-8.2-8.1-15.2-14.8-15.5-14.8-.4 0-36.4 35.7-79.9 79.2l-79.3 79.3v-174L1251.4 563c82.5-82.6 118.9-119.7 120.2-122.5 2.8-6 2.5-18-.6-23.1-3.6-6-7-9.3-12.4-12.1-6.7-3.4-16-3.5-22.9-.4-3.9 1.8-24.3 21.7-103.5 100.9l-98.7 98.7-.5-170-.5-170-2.3-4.3c-6.2-11.7-21-18-32.3-13.9zM993.2 846.7l85.6 85.6v62.8c0 34.6-.3 62.9-.5 62.9s-13.8-7.7-30.1-17.1c-16.3-9.5-40.3-23.3-53.2-30.7-12.9-7.4-24.1-14-24.8-14.7-.7-.6-2.7-6.3-4.3-12.6-2.6-9.7-16.8-62.8-23.9-89.4-5.4-19.9-8.6-31.9-20-74.5-6.7-25-13-48.6-14-52.4-1.1-3.8-1.6-6.6-1.2-6.2.4.3 39.3 39.2 86.4 86.3zm310.3-79c-1 3.2-1.9 6.6-2.1 7.6-.2 1-2.8 10.9-5.8 22s-6.7 24.7-8.1 30.2c-2.6 9.7-4.2 15.6-10.6 39.5-1.7 6.3-4.6 17.1-6.4 24-1.8 6.9-5.2 19.5-7.5 28s-5.5 20.2-7 26c-1.5 5.8-4.4 16.6-6.4 24-2 7.4-4.3 16.3-5.2 19.8-1.7 6.3-1.7 6.3-8.8 10.4-3.9 2.2-12.7 7.3-19.6 11.3-32 18.7-82.2 47.5-82.6 47.5-.2 0-.4-28.3-.4-63v-62.9l85.8-85.8c47.1-47.2 85.8-85.5 86-85.1.2.4-.4 3.4-1.3 6.5zm-335.2 289.6c1.8 1 6.6 3.8 10.7 6.2 4.1 2.4 17.2 9.9 29.1 16.9 22.7 13.1 24.3 14.1 34.9 20 3.6 2.1 6.9 4.1 7.3 4.6.5.4-5.4 4.4-13 8.7-7.6 4.4-19.6 11.4-26.8 15.5-7.1 4.1-20.6 11.9-30 17.3-22.4 13-34.1 19.7-36.7 21.2-1.3.7-3 .8-4.7.3-1.4-.5-11.1-3.1-21.6-5.9-10.4-2.8-27.5-7.4-38-10.2-10.4-2.8-34.1-9.1-52.5-14s-35.7-9.5-38.5-10.4c-2.7-.8-9.5-2.6-15-4-21.6-5.6-66-17.7-66.4-18-.1-.2 1.4-.8 3.5-1.4 2.2-.6 8.2-2.1 13.4-3.5 11.9-3.1 16.1-4.3 44-11.8 12.4-3.3 27.5-7.3 33.5-8.9 14.2-3.8 14.2-3.8 16.3-4.3.9-.3 4.2-1.2 7.2-2 8.9-2.4 73.4-19.7 75-20.1.8-.2 9.8-2.6 20-5.3 10.2-2.8 19.4-5.2 20.5-5.4 1.7-.3 5.9 1.9 27.8 14.5zm317.4-10.7c7.6 1.9 24.4 6.4 37.3 9.9 12.9 3.5 27.8 7.5 33 8.9 5.2 1.3 12 3.2 15 4 13 3.6 47.8 12.8 51 13.6 6.7 1.6 82.4 22 82.7 22.4.2.2-10.1 3.1-22.9 6.5-26.2 6.9-66.1 17.6-103.3 27.6-25 6.8-46.7 12.6-71 19.1-7.1 1.9-18.6 4.9-25.5 6.8l-12.4 3.3-12.1-7c-6.6-3.9-14-8.1-16.4-9.5-2.5-1.4-6.8-3.8-9.5-5.5-2.8-1.6-6.9-4-9.1-5.2-2.2-1.3-15-8.6-28.3-16.4-13.4-7.8-24.8-14.1-25.2-14.1-.5 0-1-.3-1.2-.8-.1-.4-2-1.6-4-2.6l-3.8-1.9 5.8-3.4c3.1-1.8 6.4-3.8 7.2-4.3.8-.5 5.3-3.1 10-5.8 9.9-5.6 41.4-23.9 68-39.3 10.2-5.9 19.1-10.6 19.7-10.4.7.3 7.5 2.1 15 4.1zm-206.9 169.3v62.8l-85.7 85.6-86.3 86.3c-.4.4.1-2.4 1.2-6.2 1.9-7.1 5.8-21.7 6.5-24.4.2-.8 2.7-10.1 5.5-20.5 2.8-10.5 6.5-24.2 8.1-30.5 1.7-6.3 4.4-16.5 6.1-22.5 1.6-6.1 3.1-11.7 3.3-12.5.2-.8 2.5-9.2 5-18.5 2.6-9.4 4.8-17.7 5-18.5.2-.8 4-15.2 8.5-32s9.3-34.4 10.6-39.3c1.3-4.8 2.6-9.1 2.9-9.6.4-.7 24.9-15.3 33-19.7 1.1-.6 3.9-2.2 6.2-3.7 2.4-1.5 4.5-2.7 4.7-2.7.2 0 5-2.7 10.5-6 5.6-3.3 10.4-6 10.7-6 .3 0 3-1.6 6-3.5s5.6-3.5 5.8-3.5c.1 0 7.2-4 15.7-9 8.5-4.9 15.7-9 16.1-9 .4 0 .6 28.3.6 62.9zm81.5-47.8c14.4 8.4 27.8 16.1 29.7 17.2 1.9 1 7.2 4.1 11.8 6.8 4.5 2.7 8.7 4.9 9.2 4.9.6 0 1 .4 1 1 0 .5.4 1 1 1 .5 0 3.3 1.4 6.2 3.1 2.9 1.8 7.3 4.3 9.6 5.6 14.5 8.2 13.5 7.1 16 16.4 1.3 4.6 2.5 9.2 2.7 10.2.2 1 .7 2.7 1 3.7.3 1 .8 2.7 1 3.7.2 1 .9 3.4 1.4 5.3.5 1.9 1.8 6.9 2.9 11 1.1 4.1 3.9 14.5 6.2 23 2.3 8.5 5.2 19.3 6.5 24 1.2 4.7 9.3 34.8 18 67 15.8 58.9 20.5 76.9 20.5 78.3 0 .4-38.7-38-86-85.3l-86-86.1V1216c0-34.7.2-63 .5-63s12.4 6.8 26.8 15.1z"/></svg>